<svg width="26" height="24" viewBox="0 0 26 24" fill="none" xmlns="http://www.w3.org/2000/svg">
<g id="vuesax/linear/global">
<g id="global">
<path id="Vector" d="M13.0001 22C18.9832 22 23.8334 17.5228 23.8334 12C23.8334 6.47715 18.9832 2 13.0001 2C7.017 2 2.16675 6.47715 2.16675 12C2.16675 17.5228 7.017 22 13.0001 22Z" stroke="#040926" stroke-linecap="round" stroke-linejoin="round"/>
<path id="Vector_2" d="M8.66657 3H9.7499C7.6374 8.84 7.6374 15.16 9.7499 21H8.66657" stroke="#040926" stroke-linecap="round" stroke-linejoin="round"/>
<path id="Vector_3" d="M16.25 3C18.3625 8.84 18.3625 15.16 16.25 21" stroke="#040926" stroke-linecap="round" stroke-linejoin="round"/>
<path id="Vector_4" d="M3.25 16V15C9.57667 16.95 16.4233 16.95 22.75 15V16" stroke="#040926" stroke-linecap="round" stroke-linejoin="round"/>
<path id="Vector_5" d="M3.25 8.99998C9.57667 7.04998 16.4233 7.04998 22.75 8.99998" stroke="#040926" stroke-linecap="round" stroke-linejoin="round"/>
</g>
</g>
</svg>
